<?xml version="1.0" encoding="iso-8859-1"?>
<!-- Generator: Adobe Illustrator 19.0.0, SVG Export Plug-In . SVG Version: 6.00 Build 0)  -->
<svg version="1.1" id="Capa_1" xmlns="http://www.w3.org/2000/svg" xmlns:xlink="http://www.w3.org/1999/xlink" x="0px" y="0px"
	 viewBox="0 0 512 512" style="enable-background:new 0 0 512 512;" xml:space="preserve">
<g transform="matrix(1.25 0 0 -1.25 0 45)">
	<g>
		<g>
			<path style="fill:#A0C4DE;" d="M409.6-201.989c0,7.817-32.939,5.689-35.556,11.378s36.5,52.156,30.811,62.578
				c-5.689,10.433-57.867-13.266-61.156-8.055c-3.277,5.211,3.322,39.822-2.367,44.089c-5.689,4.267-59.733-55.933-67.322-48.833
				c-7.578,7.111,17.545,119.467,12.356,121.731c-5.188,2.253-38.901-15.542-43.156-14.586C238.956-32.745,212.56,36,204.8,36
				c-7.76,0-34.156-68.745-38.411-69.689c-4.255-0.956-37.968,16.839-43.156,14.586c-5.188-2.264,19.934-114.62,12.356-121.731
				C128-147.933,73.956-87.733,68.267-92c-5.689-4.267,0.91-38.878-2.367-44.089c-3.288-5.211-55.467,18.489-61.156,8.055
				c-5.689-10.422,33.428-56.889,30.811-62.578C32.939-196.3,0-194.172,0-201.989c0-7.817,96.006-59.563,102.4-65.661
				c6.394-6.087-33.155-31.869-27.5-36.739c6.554-5.643,43.691,9.444,118.522,10.889v-68.722c0-6.292,5.097-11.378,11.378-11.378
				c6.292,0,11.378,5.086,11.378,11.378v68.722c74.832-1.445,111.969-16.532,118.522-10.889c5.643,4.87-33.906,30.652-27.5,36.739
				C313.594-261.552,409.6-209.806,409.6-201.989"/>
		</g>
	</g>
</g>
<g>
</g>
<g>
</g>
<g>
</g>
<g>
</g>
<g>
</g>
<g>
</g>
<g>
</g>
<g>
</g>
<g>
</g>
<g>
</g>
<g>
</g>
<g>
</g>
<g>
</g>
<g>
</g>
<g>
</g>
</svg>
