<?xml version="1.0" encoding="iso-8859-1"?>
<!-- Generator: Adobe Illustrator 19.0.0, SVG Export Plug-In . SVG Version: 6.00 Build 0)  -->
<svg version="1.1" id="Capa_1" xmlns="http://www.w3.org/2000/svg" xmlns:xlink="http://www.w3.org/1999/xlink" x="0px" y="0px"
	 viewBox="0 0 512 512" style="enable-background:new 0 0 512 512;" xml:space="preserve">
<rect x="10" y="110.532" style="fill:#FFFFFF;" width="449.009" height="364.467"/>
<rect x="64.001" y="344.167" style="fill:#72D8FF;" width="76.001" height="76.001"/>
<rect x="64.001" y="191.004" style="fill:#FFC66C;" width="76.001" height="76.001"/>
<rect x="10" y="36.996" style="fill:#C9F3FF;" width="378.467" height="72.001"/>
<polygon style="fill:#4DBAF6;" points="462.009,110.536 388.469,36.996 388.469,110.536 "/>
<path style="fill:#FFC66C;" d="M335.119,364.378l4.141,72.829l65.142-32.829l94.69-164.007c6.006-10.403,2.442-23.705-7.961-29.712
	l-31.611-18.25c-10.403-6.006-23.705-2.442-29.712,7.961L335.119,364.378z"/>
<polygon style="fill:#898998;" points="335.119,364.378 339.261,437.207 404.403,404.379 "/>
<path style="fill:#FF5D5D;" d="M481.958,270.048l17.134-29.677c6.006-10.403,2.442-23.705-7.961-29.712l-31.611-18.25
	c-10.403-6.006-23.705-2.442-29.712,7.961l-17.179,29.756L481.958,270.048z"/>
<path d="M212.231,62.996c-5.523,0-10,4.477-10,10c0,5.523,4.477,10,10,10h130.776c5.523,0,10-4.477,10-10c0-5.523-4.477-10-10-10
	C343.007,62.996,212.231,62.996,212.231,62.996z"/>
<path d="M96.692,65.926c-1.86,1.86-2.93,4.44-2.93,7.07c0,2.63,1.07,5.21,2.93,7.07c1.86,1.86,4.44,2.93,7.07,2.93
	s5.21-1.07,7.07-2.93c1.86-1.86,2.93-4.44,2.93-7.07c0-2.63-1.07-5.21-2.93-7.07c-1.86-1.86-4.44-2.93-7.07-2.93
	S98.552,64.066,96.692,65.926z"/>
<path d="M59.941,65.926c-1.86,1.86-2.93,4.44-2.93,7.07c0,2.63,1.07,5.21,2.93,7.07c1.86,1.86,4.44,2.93,7.07,2.93
	c2.64,0,5.21-1.07,7.07-2.93c1.87-1.86,2.93-4.44,2.93-7.07c0-2.63-1.06-5.21-2.93-7.07c-1.86-1.86-4.43-2.93-7.07-2.93
	C64.381,62.996,61.801,64.066,59.941,65.926z"/>
<path d="M133.443,65.926c-1.86,1.86-2.93,4.44-2.93,7.07c0,2.63,1.07,5.21,2.93,7.07c1.86,1.86,4.44,2.93,7.07,2.93
	s5.21-1.07,7.07-2.93c1.86-1.86,2.93-4.44,2.93-7.07c0-2.63-1.07-5.21-2.93-7.07c-1.86-1.86-4.44-2.93-7.07-2.93
	S135.303,64.066,133.443,65.926z"/>
<path d="M370.437,193.929c-1.86,1.86-2.93,4.44-2.93,7.07c0,2.63,1.07,5.21,2.93,7.07c1.86,1.86,4.44,2.93,7.07,2.93
	s5.21-1.07,7.07-2.93c1.86-1.86,2.93-4.44,2.93-7.07c0-2.63-1.07-5.21-2.93-7.07c-1.86-1.86-4.44-2.93-7.07-2.93
	C374.877,190.999,372.297,192.069,370.437,193.929z"/>
<path d="M335.119,190.999H194.712c-5.523,0-10,4.477-10,10s4.477,10,10,10h140.407c5.523,0,10-4.477,10-10
	S340.642,190.999,335.119,190.999z"/>
<path d="M345.119,257c0-5.523-4.477-10-10-10H194.712c-5.523,0-10,4.477-10,10c0,5.523,4.477,10,10,10h140.407
	C340.642,267,345.119,262.523,345.119,257z"/>
<path d="M140.003,257H74.001v-66.001c0-5.523-4.477-10-10-10s-10,4.477-10,10V267c0,5.523,4.477,10,10,10h76.001
	c5.523,0,10-4.477,10-10C150.003,261.477,145.526,257,140.003,257z"/>
<path d="M289.773,344.163h-55.268c-5.523,0-10,4.477-10,10s4.477,10,10,10h55.268c5.523,0,10-4.477,10-10
	S295.296,344.163,289.773,344.163z"/>
<path d="M194.714,364.162c2.63,0,5.21-1.07,7.07-2.93c1.86-1.86,2.93-4.44,2.93-7.07s-1.07-5.21-2.93-7.07
	c-1.86-1.86-4.44-2.93-7.07-2.93c-2.64,0-5.21,1.07-7.07,2.93c-1.86,1.86-2.93,4.44-2.93,7.07s1.07,5.21,2.93,7.07
	C189.504,363.092,192.084,364.162,194.714,364.162z"/>
<path d="M194.712,420.164h95.061c5.523,0,10-4.477,10-10c0-5.523-4.477-10-10-10h-95.061c-5.523,0-10,4.477-10,10
	C184.712,415.687,189.189,420.164,194.712,420.164z"/>
<path d="M140.003,334.163H64.001c-5.523,0-10,4.477-10,10v76.001c0,5.523,4.477,10,10,10h76.001c5.523,0,10-4.477,10-10v-76.001
	C150.003,338.64,145.526,334.163,140.003,334.163z M130.003,410.164H74.001v-56.001h56.001V410.164z"/>
<path d="M496.132,201.999l-31.611-18.25c-15.162-8.754-34.618-3.54-43.372,11.621l-94.69,164.007
	c-0.974,1.688-1.435,3.623-1.324,5.568l4.141,72.829c0.191,3.365,2.065,6.407,4.984,8.092c1.544,0.892,3.271,1.34,5,1.34
	c1.54,0,3.082-0.355,4.5-1.07l65.142-32.829c1.74-0.877,3.186-2.243,4.16-3.93l94.69-164.007
	C516.506,230.21,511.293,210.752,496.132,201.999z M346.154,382.296l37.214,21.485l-34.989,17.632L346.154,382.296z
	 M400.742,390.719l-51.963-30.001l67.501-116.916l51.963,30.001L400.742,390.719z M490.432,235.371l-12.188,21.11l-51.963-30.001
	l12.188-21.11c3.239-5.611,10.44-7.541,16.051-4.301l31.611,18.25C491.742,222.559,493.672,229.76,490.432,235.371z"/>
<path d="M153.63,187.707c-3.905-3.904-10.237-3.904-14.143,0l-26.158,26.158l-9.543-9.543c-3.905-3.905-10.237-3.905-14.142,0
	s-3.905,10.237,0,14.142l16.614,16.614c1.953,1.953,4.512,2.929,7.071,2.929c2.559,0,5.119-0.977,7.071-2.929l33.229-33.229
	C157.535,197.944,157.535,191.612,153.63,187.707z"/>
<path d="M462.009,394.379c-5.523,0-10,4.477-10,10v60.626H20v-202.81c0.001-0.065,0.01-0.13,0.01-0.195s-0.008-0.13-0.01-0.195
	V118.997h323.006c5.523,0,10-4.477,10-10s-4.477-10-10-10H20V46.996h358.468v63.54c0,5.523,4.477,10,10,10h63.54v28.462
	c0,5.523,4.477,10,10,10s10-4.477,10-10v-38.462c0-2.652-1.054-5.196-2.929-7.071l-73.54-73.54
	c-1.875-1.875-4.419-2.929-7.071-2.929H10c-5.523,0-10,4.477-10,10v438.009c0,5.523,4.477,10,10,10h452.009c5.523,0,10-4.477,10-10
	v-70.626C472.009,398.856,467.532,394.379,462.009,394.379z M398.469,61.138l39.398,39.398h-39.398V61.138z"/>
<g>
</g>
<g>
</g>
<g>
</g>
<g>
</g>
<g>
</g>
<g>
</g>
<g>
</g>
<g>
</g>
<g>
</g>
<g>
</g>
<g>
</g>
<g>
</g>
<g>
</g>
<g>
</g>
<g>
</g>
</svg>
