<?xml version="1.0"?>
<svg xmlns="http://www.w3.org/2000/svg" height="512px" viewBox="-20 -20 640 640.00051" width="512px"><path d="m309.988281 499.003906c23.261719-4.785156 39.972657-25.25 40-49v-379.988281h40c5.523438 0 10-4.476563 10-10-.035156-33.125-26.878906-59.96875-60-59.9960938h-257.136719c-28.375-.7382812-52.007812 21.6132808-52.851562 49.9960938v379.988281h-20c-5.523438 0-10 4.472656-10 10 .0351562 33.121094 26.875 59.964844 59.996094 60h239.996094c1.21875 0 2.355468-.273437 3.546874-.363281 2.140626.234375 4.292969.359375 6.449219.363281zm68.730469-448.988281h-28.730469v-28.59375c14.054688 3.613281 25.046875 14.554687 28.730469 28.59375zm-328.722656 0c.847656-17.332031 15.523437-30.730469 32.855468-30h247.136719v429.988281c-.042969 14.605469-10.597656 27.054688-24.996093 29.488282-19.949219-2.476563-34.9375-19.394532-35-39.488282v-10h-219.996094zm-28.726563 399.988281h229.621094c1.894531 11.171875 6.921875 21.574219 14.5 30h-205.394531c-18.230469-.023437-34.148438-12.351562-38.726563-30zm0 0" fill="#a0c4de"/><path d="m563.324219 328.378906c-3.964844-3.761718-10.175781-3.761718-14.140625 0l-21.203125 21.207032-183.851563 183.84375c-.40625.503906-.765625 1.039062-1.070312 1.613281-.398438.46875-.75.976562-1.054688 1.515625l-.066406.171875-21.128906 49.308593c-1.332032 3.085938-1.023438 6.640626.828125 9.453126 1.847656 2.8125 4.988281 4.503906 8.351562 4.507812 1.355469 0 2.695313-.273438 3.941407-.808594l49.304687-21.132812.160156-.070313c.523438-.285156 1.015625-.617187 1.472657-1 .589843-.300781 1.152343-.671875 1.660156-1.097656l183.875-183.886719 21.210937-21.210937c3.902344-3.902344 3.902344-10.234375 0-14.140625zm-7.070313 21.207032 14.148438 14.148437-7.070313 7.070313-7.078125-7.070313-7.070312-7.082031zm-196.625 196.621093 175.414063-175.402343 7.070312 7.066406 7.078125 7.070312-175.414062 175.417969-24.789063 10.636719zm0 0" fill="#a0c4de"/><path d="m379.988281 310.007812h35.859375l67.066406 67.0625 14.140626-14.132812-69.996094-70c-1.875-1.878906-4.421875-2.929688-7.070313-2.929688h-40zm0 0" fill="#a0c4de"/><path d="m379.988281 320.007812h20v20h-20zm0 0" fill="#a0c4de"/><path d="m379.988281 350.007812h40v20h-40zm0 0" fill="#a0c4de"/><path d="m379.988281 380.007812h40v20h-40zm0 0" fill="#a0c4de"/><path d="m159.996094 220.011719h10v-9.503907l4.046875-40.496093h31.949219l4 40.496093v9.503907h10c2.832031.007812 5.542968-1.175781 7.445312-3.277344 1.910156-2.09375 2.839844-4.90625 2.554688-7.722656l-10-100c-.515626-5.128907-4.847657-9.027344-10-8.996094h-39.996094c-5.15625-.03125-9.488282 3.867187-10 8.996094l-10 100c-.285156 2.816406.644531 5.628906 2.546875 7.722656 1.910156 2.101563 4.613281 3.285156 7.453125 3.277344zm41-99.996094 2.996094 29.996094h-27.898438l2.996094-29.996094zm0 0" fill="#a0c4de"/><path d="m89.996094 220.011719h20v-99.996094h30v-10c0-5.527344-4.476563-10-10-10h-60c-5.519532 0-10 4.472656-10 10v10h30zm0 0" fill="#a0c4de"/><path d="m253.5625 223.488281 26.429688-44.039062 26.429687 44.039062 17.136719-10.289062-31.90625-53.1875 31.90625-53.191407-17.136719-10.285156-26.429687 44.035156-26.429688-44.035156-17.140625 10.285156 31.910156 53.191407-31.910156 53.1875zm0 0" fill="#a0c4de"/><path d="m69.996094 270.011719h60v19.996093h-60zm0 0" fill="#a0c4de"/><path d="m69.996094 300.007812h109.996094v20h-109.996094zm0 0" fill="#a0c4de"/><path d="m69.996094 330.007812h169.996094v20h-169.996094zm0 0" fill="#a0c4de"/><path d="m259.992188 330.007812h49.996093v20h-49.996093zm0 0" fill="#a0c4de"/><path d="m199.992188 300.007812h109.996093v20h-109.996093zm0 0" fill="#a0c4de"/><path d="m149.996094 270.011719h159.992187v19.996093h-159.992187zm0 0" fill="#a0c4de"/><path d="m499.984375.0195312h20v19.9960938h-20zm0 0" fill="#a0c4de"/><path d="m529.984375.0195312h69.996094v19.9960938h-69.996094zm0 0" fill="#a0c4de"/><path d="m499.984375 30.015625h99.996094v20h-99.996094zm0 0" fill="#a0c4de"/><path d="m499.984375 60.015625h99.996094v20h-99.996094zm0 0" fill="#a0c4de"/></svg>
