<?xml version="1.0" encoding="utf-8"?>
<!-- Generator: Adobe Illustrator 16.0.0, SVG Export Plug-In . SVG Version: 6.00 Build 0)  -->
<!DOCTYPE svg PUBLIC "-//W3C//DTD SVG 1.1//EN" "http://www.w3.org/Graphics/SVG/1.1/DTD/svg11.dtd">
<svg version="1.1" id="Layer_1" xmlns="http://www.w3.org/2000/svg" xmlns:xlink="http://www.w3.org/1999/xlink" x="0px" y="0px"
	 width="800px" height="562.332px" viewBox="0 0 800 562.332" enable-background="new 0 0 800 562.332" xml:space="preserve">
<g>
	<path fill-rule="evenodd" clip-rule="evenodd" fill="#1A478E" d="M84.822,483.842h-3.664c-0.403-7.333,0-12.218-10.849-12.218
		H49.672v75.884c0,9.487,5.157,9.646,12.356,9.755v3.55c-6.521,0-12.356-0.276-18.33-0.276c-6.506,0-12.893,0.134-19.679,0.276
		v-3.55c7.201-0.108,12.358-0.268,12.358-9.755v-75.884H18.605c-12.225,0-12.761,3.382-15.073,12.218H0l1.493-21.598h2.719
		c1.497,3.675,5.157,3.817,8.544,3.817h61.621c4.888,0,8.274-1.236,8.828-3.817h2.85L84.822,483.842L84.822,483.842z"/>
	<path fill-rule="evenodd" clip-rule="evenodd" fill="#1A478E" d="M92.761,527.204v23.619c0,7.133,3.869,7.225,9.249,7.333v2.656
		c-4.877,0-9.249-0.209-13.73-0.209c-4.884,0-9.671,0.092-14.757,0.209v-2.656c5.086,0.317,9.256-1.002,9.256-6.815v-51.613
		c0-7.107-3.856-7.225-9.256-7.333v-2.623c5.589,0.084,10.486,0.201,15.469,0.201c3.563,0,7.12-0.201,13.63-0.201
		c19.231,0,23.516,10.766,23.516,18.007c0,8.661-6.51,15.05-14.457,17.405c9.264,13.53,14.146,21.673,18.52,26.558
		c3.264,3.658,6.314,6.415,11.505,6.415v2.656c-2.543,0-5.097-0.209-7.636-0.209c-2.848,0-5.796,0.092-8.646,0.209
		c-9.266-10.189-16.085-22.099-23.415-33.608H92.761L92.761,527.204z M98.866,493.021c-2.551,0-4.282,0.291-6.105,0.601v29.815
		c1.524,0.317,3.66,0.519,5.383,0.519c12.523,0,17.407-8.26,17.407-15.567C115.55,499.526,110.863,493.021,98.866,493.021
		L98.866,493.021z"/>
	<path fill-rule="evenodd" clip-rule="evenodd" fill="#1A478E" d="M188.513,540.551c1.424,3.976,4.176,12.603,5.796,14.849
		c1.524,2.047,4.581,2.757,7.845,2.757v2.656c-3.869,0-7.845-0.209-11.701-0.209c-4.996,0-9.874,0.092-14.86,0.209v-2.656h1.825
		c2.55,0,5.606-0.51,5.606-3.357c0-1.128-0.82-3.976-1.53-5.905l-5.086-14.757H152.49l-2.238,7.133
		c-1.322,4.259-2.748,8.952-2.748,12.118c0,4.769,3.354,4.568,6.914,4.769h2.343v2.656c-3.973,0-8.032-0.209-12.01-0.209
		c-4.063,0-8.248,0.092-12.313,0.209v-2.656c6.214-0.71,7.329-1.521,9.88-7.216c1.616-3.684,2.848-7.625,4.166-11.417l13.02-36.322
		c0.819-2.354,2.153-6.121,2.153-9.169c0-1.011,0-1.822-0.208-2.648c2.136-1.011,4.474-2.13,5.898-4.468h1.723L188.513,540.551
		L188.513,540.551z M153.913,529.969h20.969l-10.899-29.924h-0.194L153.913,529.969L153.913,529.969z"/>
	<path fill-rule="evenodd" clip-rule="evenodd" fill="#1A478E" d="M272.576,561.73h-2.345l-53.217-58.438v37.977
		c0,14.047,1.113,16.887,12.102,16.887v2.656c-4.469,0-9.047-0.209-13.528-0.209c-4.479,0-9.06,0.092-13.54,0.209v-2.656
		c6.213,0,10.889,0,10.889-12.912v-40.94c0-8.752-3.769-11.909-12.516-11.909v-2.623c3.157,0.084,6.214,0.201,9.371,0.201
		c2.74,0,5.589-0.201,8.335-0.201c4.178,6.188,13.643,15.451,25.237,28.279c8.659,9.58,18.223,19.652,25.134,27.193V504.73
		c0-9.38-2.134-12.228-12.306-12.336v-2.623c4.681,0.084,9.458,0.201,14.148,0.201c3.957,0,7.832-0.201,11.801-0.201v2.623
		c-6.211,0-9.565,0.509-9.565,10.498V561.73L272.576,561.73z"/>
	<path fill-rule="evenodd" clip-rule="evenodd" fill="#1A478E" d="M286.296,544.009h2.342c1.727,7.625,7.429,15.074,15.875,15.074
		c7.842,0,13.937-5.495,13.937-13.555c0-18.925-30.118-13.321-30.118-37.341c0-13.129,9.368-19.943,21.781-19.943
		c4.172,0,8.337,0.918,12.413,1.527l1.633,13.004h-2.345c-1.127-7.106-5.796-11.283-13.125-11.283
		c-7.738,0-12.216,5.588-12.216,13.037c0,18.908,31.346,13.723,31.346,37.124c0,13.254-11.907,20.679-23.917,20.679
		c-5.293,0-10.782-1.228-15.569-3.474L286.296,544.009L286.296,544.009z"/>
	<path fill-rule="evenodd" clip-rule="evenodd" fill="#1A478E" d="M385.323,540.551c1.424,3.976,4.171,12.603,5.798,14.849
		c1.537,2.047,4.585,2.757,7.838,2.757v2.656c-3.869,0-7.838-0.209-11.707-0.209c-4.978,0-9.874,0.092-14.86,0.209v-2.656h1.839
		c2.541,0,5.596-0.51,5.596-3.357c0-1.128-0.818-3.976-1.53-5.905l-5.084-14.757h-23.92l-2.242,7.133
		c-1.318,4.259-2.744,8.952-2.744,12.118c0,4.769,3.366,4.568,6.926,4.769h2.345v2.656c-3.976,0-8.051-0.209-12.01-0.209
		c-4.082,0-8.25,0.092-12.325,0.209v-2.656c6.214-0.71,7.339-1.521,9.874-7.216c1.632-3.684,2.848-7.625,4.173-11.417l13.029-36.322
		c0.818-2.354,2.136-6.121,2.136-9.169c0-1.011,0-1.822-0.209-2.648c2.136-1.011,4.483-2.13,5.905-4.468h1.733L385.323,540.551
		L385.323,540.551z M350.717,529.969h20.969l-10.889-29.924h-0.207L350.717,529.969L350.717,529.969z"/>
	<path fill-rule="evenodd" clip-rule="evenodd" fill="#1A478E" d="M446.987,546.856c9.158-19.042,19.03-37.775,27.486-57.085
		c2.743,0.084,5.592,0.201,8.339,0.201c2.953,0,6.01-0.201,8.962-0.201v2.623c-3.454,0-5.801,0.226-7.12,1.228
		c-1.337,1.011-1.942,2.765-1.942,6.105c0,16.086,0.919,33.173,1.324,48.54c0.2,7.65,0.906,9.889,11.087,9.889v2.656
		c-5.591,0-11.199-0.209-16.782-0.209c-4.99,0-9.881,0.092-14.858,0.209v-2.656c3.554,0,6.097,0,7.838-0.91
		c1.825-1.02,2.648-2.948,2.648-6.916l-0.724-48.564h-0.199l-24.021,49.868c-1.123,2.446-3.148,7.449-3.967,10.097h-2.034
		c-8.644-19.451-18.419-38.492-28.087-57.719h-0.2l-0.818,36.856c0,1.303-0.1,4.978-0.1,6.389c0,5.003,0.513,7.742,2.129,9.153
		c1.638,1.438,4.181,1.746,8.252,1.746v2.656c-4.172,0-8.443-0.209-12.628-0.209c-4.472,0-9.05,0.092-13.521,0.209v-2.656
		c7.22,0,11.696-1.746,12.098-15.359c0.417-13.956,1.136-27.794,1.136-41.75c0-3.565-0.531-5.805-1.954-7.015
		c-1.424-1.212-3.654-1.638-7.008-1.638v-2.623c3.554,0.084,7.221,0.201,10.773,0.201c2.147,0,4.377-0.201,6.52-0.201
		L446.987,546.856L446.987,546.856z"/>
	<path fill-rule="evenodd" clip-rule="evenodd" fill="#1A478E" d="M520.366,521.909h13.446c8.243,0,8.243-6.389,8.536-8.743h2.037
		c-0.201,2.237-0.4,7.732-0.4,11.416c0,3.232,0.514,8.026,0.4,11.283h-2.037c0-9.764-3.246-9.764-11.083-9.764h-10.899v17.297
		c0,11.309,0.418,14.156,10.486,14.156h6.326c9.955-0.518,14.444-1.838,18.398-12.744l2.442,0.434
		c-1.624,5.086-3.135,10.272-4.171,15.568c-10.169,0-20.349-0.209-30.521-0.209c-7.533,0-15.059,0-22.596,0.209v-2.656
		c8.861,0,9.675-1.638,9.675-11.501v-45.199c0-8.343-1.633-8.752-9.675-9.062v-2.623c6.832,0.201,13.738,0.201,20.554,0.201
		c9.78,0,19.446,0,29.314-0.201v15.159l-2.042,0.518c-1.524-9.58-6.102-12.427-16.282-12.427h-11.909V521.909L520.366,521.909z"/>
	<path fill-rule="evenodd" clip-rule="evenodd" fill="#1A478E" d="M582.031,527.204v23.619c0,7.133,3.867,7.225,9.262,7.333v2.656
		c-4.877,0-9.262-0.209-13.737-0.209c-4.887,0-9.664,0.092-14.754,0.209v-2.656c5.09,0.317,9.262-1.002,9.262-6.815v-51.613
		c0-7.107-3.871-7.225-9.262-7.333v-2.623c5.595,0.084,10.485,0.201,15.472,0.201c3.558,0,7.111-0.201,13.638-0.201
		c19.23,0,23.506,10.766,23.506,18.007c0,8.661-6.506,15.05-14.456,17.405c9.262,13.53,14.14,21.673,18.523,26.558
		c3.254,3.658,6.314,6.415,11.505,6.415v2.656c-2.556,0-5.09-0.209-7.638-0.209c-2.848,0-5.796,0.092-8.644,0.209
		c-9.275-10.189-16.09-22.099-23.415-33.608H582.031L582.031,527.204z M588.141,493.021c-2.543,0-4.28,0.291-6.109,0.601v29.815
		c1.537,0.317,3.667,0.519,5.403,0.519c12.516,0,17.397-8.26,17.397-15.567C604.832,499.526,600.143,493.021,588.141,493.021
		L588.141,493.021z"/>
	<path fill-rule="evenodd" clip-rule="evenodd" fill="#1A478E" d="M639.938,499.728c0-7.107-3.872-7.225-9.262-7.333v-2.623
		c4.789,0.084,9.462,0.201,14.039,0.201c4.685,0,9.374-0.117,14.465-0.201v2.623c-5.408,0.108-9.274,0.226-9.274,7.333v51.096
		c0,7.133,3.866,7.225,9.274,7.333v2.656c-4.902,0-9.274-0.209-13.746-0.209c-4.883,0-9.668,0.092-14.758,0.209v-2.656
		c5.39-0.108,9.262-0.2,9.262-7.333V499.728L639.938,499.728z"/>
	<path fill-rule="evenodd" clip-rule="evenodd" fill="#1A478E" d="M729.577,508.188h-2.555
		c-1.93-11.918-10.373-16.695-21.766-16.695c-11.717,0-28.704,7.834-28.704,32.263c0,20.563,14.666,35.328,30.321,35.328
		c10.08,0,18.424-6.932,20.461-17.613l2.348,0.609l-2.348,14.85c-4.271,2.647-15.775,5.403-22.491,5.403
		c-23.807,0-38.865-15.384-38.865-38.268c0-20.863,18.621-35.82,38.561-35.82c8.256,0,16.182,2.622,24.024,5.378L729.577,508.188
		L729.577,508.188z"/>
	<path fill-rule="evenodd" clip-rule="evenodd" fill="#1A478E" d="M786.353,540.551c1.428,3.976,4.173,12.603,5.809,14.849
		c1.524,2.047,4.577,2.757,7.839,2.757v2.656c-3.867,0-7.839-0.209-11.697-0.209c-4.998,0-9.876,0.092-14.866,0.209v-2.656h1.825
		c2.56,0,5.608-0.51,5.608-3.357c0-1.128-0.819-3.976-1.523-5.905l-5.1-14.757h-23.911l-2.243,7.133
		c-1.323,4.259-2.734,8.952-2.734,12.118c0,4.769,3.353,4.568,6.907,4.769h2.347v2.656c-3.972,0-8.043-0.209-12.002-0.209
		c-4.071,0-8.255,0.092-12.327,0.209v-2.656c6.206-0.71,7.337-1.521,9.88-7.216c1.629-3.684,2.848-7.625,4.172-11.417l13.021-36.322
		c0.818-2.354,2.142-6.121,2.142-9.169c0-1.011,0-1.822-0.199-2.648c2.129-1.011,4.472-2.13,5.896-4.468h1.725L786.353,540.551
		L786.353,540.551z M751.76,529.969h20.959l-10.887-29.924h-0.192L751.76,529.969L751.76,529.969z"/>
	
		<path fill-rule="evenodd" clip-rule="evenodd" fill="#FFFFFF" stroke="#000000" stroke-width="0.884" stroke-miterlimit="2.6131" d="
		M487.164,414.64c3.779,0,6.832-3.049,6.832-6.841c0-3.767-3.053-6.839-6.832-6.839c-3.767,0-6.827,3.072-6.827,6.839
		C480.337,411.591,483.397,414.64,487.164,414.64L487.164,414.64z"/>
	<path fill-rule="evenodd" clip-rule="evenodd" d="M487.502,407.424c0.442,0,0.79-0.092,1.049-0.275
		c0.258-0.176,0.384-0.51,0.384-0.986c0-0.509-0.18-0.852-0.539-1.043c-0.191-0.092-0.451-0.142-0.772-0.142h-2.305v2.446H487.502
		L487.502,407.424z M484.35,404.142h3.253c0.538,0,0.98,0.083,1.327,0.242c0.66,0.301,0.99,0.869,0.99,1.687
		c0,0.435-0.087,0.785-0.267,1.053c-0.176,0.275-0.423,0.492-0.739,0.66c0.275,0.117,0.488,0.267,0.63,0.45
		c0.138,0.184,0.217,0.484,0.233,0.902l0.034,0.96c0.012,0.268,0.037,0.477,0.071,0.602c0.058,0.234,0.162,0.377,0.313,0.443v0.158
		h-1.189c-0.034-0.059-0.059-0.143-0.08-0.234c-0.017-0.1-0.033-0.283-0.05-0.567l-0.059-1.194
		c-0.021-0.468-0.188-0.776-0.505-0.943c-0.18-0.084-0.464-0.126-0.848-0.126h-2.146v3.065h-0.969V404.142L484.35,404.142z"/>
	<polygon fill-rule="evenodd" clip-rule="evenodd" fill="#E1293A" points="401.663,0.403 401.663,414.849 341.242,414.849 400.45,0 
		401.663,0.403 	"/>
	<polygon fill-rule="evenodd" clip-rule="evenodd" fill="#E1293A" points="420.714,129.367 414.646,238.856 412.604,238.856 
		406.528,129.367 420.714,129.367 	"/>
	<polygon fill-rule="evenodd" clip-rule="evenodd" fill="#E1293A" points="384.224,129.367 378.146,238.856 376.117,238.856 
		370.033,129.367 384.224,129.367 	"/>
	<polygon fill-rule="evenodd" clip-rule="evenodd" fill="#E1293A" points="398.42,414.849 459.646,414.849 458.426,406.747 
		398.813,406.747 398.42,414.849 	"/>
	<polygon fill-rule="evenodd" clip-rule="evenodd" fill="#E1293A" points="395.585,395.798 456.81,395.798 455.586,387.68 
		395.988,387.68 395.585,395.798 	"/>
	<polygon fill-rule="evenodd" clip-rule="evenodd" fill="#E1293A" points="393.148,376.739 454.375,376.739 453.155,368.638 
		393.541,368.638 393.148,376.739 	"/>
	<polygon fill-rule="evenodd" clip-rule="evenodd" fill="#E1293A" points="390.313,357.672 451.539,357.672 450.316,349.571 
		390.716,349.571 390.313,357.672 	"/>
	<polygon fill-rule="evenodd" clip-rule="evenodd" fill="#E1293A" points="387.477,339.022 448.7,339.022 447.48,330.905 
		387.88,330.905 387.477,339.022 	"/>
	<polygon fill-rule="evenodd" clip-rule="evenodd" fill="#E1293A" points="385.039,319.956 446.27,319.956 445.046,311.838 
		385.441,311.838 385.039,319.956 	"/>
	<polygon fill-rule="evenodd" clip-rule="evenodd" fill="#E1293A" points="382.199,300.896 443.431,300.896 442.211,292.787 
		382.604,292.787 382.199,300.896 	"/>
	<polygon fill-rule="evenodd" clip-rule="evenodd" fill="#E1293A" points="379.368,281.838 440.582,281.838 439.363,273.737 
		379.767,273.737 379.368,281.838 	"/>
	<polygon fill-rule="evenodd" clip-rule="evenodd" fill="#E1293A" points="376.929,262.791 438.16,262.791 436.937,254.68 
		377.332,254.68 376.929,262.791 	"/>
	<polygon fill-rule="evenodd" clip-rule="evenodd" fill="#E1293A" points="374.098,243.723 435.312,243.723 434.088,235.614 
		374.497,235.614 374.098,243.723 	"/>
	<polygon fill-rule="evenodd" clip-rule="evenodd" fill="#E1293A" points="395.09,224.668 412.796,224.668 412.437,216.546 
		395.213,216.546 395.09,224.668 	"/>
	<polygon fill-rule="evenodd" clip-rule="evenodd" fill="#E1293A" points="394.62,205.599 412.328,205.599 411.965,197.49 
		394.741,197.49 394.62,205.599 	"/>
	<polygon fill-rule="evenodd" clip-rule="evenodd" fill="#E1293A" points="394.495,186.136 412.202,186.136 411.855,178.026 
		394.62,178.026 394.495,186.136 	"/>
	<polygon fill-rule="evenodd" clip-rule="evenodd" fill="#E1293A" points="394.025,167.484 411.73,167.484 411.385,159.375 
		394.159,159.375 394.025,167.484 	"/>
	<polygon fill-rule="evenodd" clip-rule="evenodd" fill="#E1293A" points="393.912,148.417 411.618,148.417 411.259,140.314 
		394.025,140.314 393.912,148.417 	"/>
	<polygon fill-rule="evenodd" clip-rule="evenodd" fill="#E1293A" points="423.144,224.668 432.477,224.668 431.253,216.546 
		423.549,216.546 423.144,224.668 	"/>
	<polygon fill-rule="evenodd" clip-rule="evenodd" fill="#E1293A" points="424.367,205.599 430.042,205.599 428.818,197.49 
		424.771,197.49 424.367,205.599 	"/>
</g>
</svg>
