<?xml version="1.0"?>
<svg xmlns="http://www.w3.org/2000/svg" height="512px" viewBox="0 -4 470.21189 470" width="512px"><path d="m463.421875 343.230469h-15.210937v-30.945313c0-26.984375-21.769532-48.9375-48.5-48.9375-26.730469 0-48.5 21.953125-48.5 48.9375v30.945313h-15.144532c-1.804687-.078125-3.558594.585937-4.855468 1.839843-1.296876 1.253907-2.019532 2.984376-2 4.789063v105.488281c-.027344 1.828125.683593 3.59375 1.972656 4.886719 1.292968 1.296875 3.050781 2.015625 4.882812 1.996094h127.355469c1.820313.015625 3.574219-.703125 4.851563-2 1.28125-1.300781 1.980468-3.058594 1.9375-4.882813v-105.488281c.03125-1.796875-.679688-3.527344-1.964844-4.78125-1.285156-1.257813-3.03125-1.925781-4.824219-1.847656zm-98.210937-30.945313c0-19.265625 15.488281-34.9375 34.5-34.9375 19.007812 0 34.5 15.671875 34.5 34.9375v30.945313h-69zm0 0" fill="#a0c4de"/><path d="m347.808594 235.464844c3.867187 0 7-3.132813 7-7 0-12.335938 4.929687-23.984375 14.253906-33.453125 9.742188-8.847657 22.421875-13.761719 35.582031-13.78125h.03125c13.128907-.035157 25.792969 4.875 35.46875 13.753906 7.15625 7.328125 12.910157 24.0625 14.53125 29.890625.914063 3.378906 4.195313 5.5625 7.667969 5.101562 3.472656-.460937 6.070312-3.417968 6.078125-6.921874 0-59.675782-24.394531-115.714844-68.683594-157.8125-44.195312-42.007813-102.980469-65.136719-165.527343-65.136719-62.550782 0-121.332032 23.136719-165.527344 65.140625-44.289063 42.101562-68.683594 98.148437-68.683594 157.824218 0 3.5 2.585938 6.460938 6.054688 6.933594s6.753906-1.691406 7.691406-5.0625c1.617187-5.828125 7.367187-22.601562 14.511718-29.9375 9.738282-8.84375 22.414063-13.75 35.570313-13.773437h.03125c13.132813-.03125 25.792969 4.882812 35.472656 13.757812 9.335938 9.480469 14.269531 21.070313 14.269531 33.414063-.011718 3.867187 3.113282 7.011718 6.976563 7.023437 3.867187.011719 7.011719-3.109375 7.023437-6.976562 0-12.335938 4.929688-23.972657 14.253907-33.449219 9.742187-8.84375 22.417969-13.75 35.574219-13.769531h.035156c13.132812-.03125 25.796875 4.878906 35.472656 13.757812 9.335938 9.476563 14.273438 21.132813 14.273438 33.476563v194.890625c0 12.890625-10.789063 22.992187-24.558594 22.992187-13.769532 0-24.558594-10.101562-24.558594-22.992187 0-3.867188-3.132812-7-7-7-3.863281 0-7 3.132812-7 7 0 20.742187 16.9375 36.992187 38.558594 36.992187s38.558594-16.25 38.558594-36.992187v-194.890625c0-12.335938 4.925781-23.980469 14.25-33.457032 9.742187-8.84375 22.421874-13.753906 35.578124-13.777343h.03125c13.132813-.03125 25.792969 4.882812 35.46875 13.757812 9.339844 9.480469 14.273438 21.070313 14.273438 33.414063-.003906 3.878906 3.121094 7.03125 6.996094 7.0625zm0 0" fill="#a0c4de"/></svg>
