<?xml version="1.0" encoding="iso-8859-1"?>
<!-- Generator: Adobe Illustrator 19.0.0, SVG Export Plug-In . SVG Version: 6.00 Build 0)  -->
<svg xmlns="http://www.w3.org/2000/svg" xmlns:xlink="http://www.w3.org/1999/xlink" version="1.1" id="Capa_1" x="0px" y="0px" viewBox="0 0 512 512" style="enable-background:new 0 0 512 512;" xml:space="preserve" width="512px" height="512px">
<g>
	<g>
		<path d="M497.781,482.277h-9.411c2.098-4.491,2.749-9.694,1.495-14.886l-26.897-111.44c-2.463-10.202-11.574-17.363-22.103-17.336    l-34.409,0.127l-0.947-5.927c-34.672,0.874-31.637,0.797-39.688,1c-13.156,0.331-24.196-9.673-25.457-22.566l-5.494-57.591    l17.171,53.491c2.456,7.651,9.431,13.378,19.544,13.1l69.839-1.759c10.422-0.262,18.657-8.924,18.395-19.345    c-0.263-10.421-8.887-18.661-19.345-18.394l-56.798,1.431L367.9,233.035l20.674,35.604l6.655-0.168l-4.775-29.888    c-2.771-17.34-19.16-29.101-36.468-26.183l-13.322,2.246c-25.784,4.347-43.072,28.917-38.472,54.645l16.024,89.63l0.003,0.017    c4.217-0.645,8.529-0.997,12.924-0.997c23.311,0,45.301,9.491,61.345,26.154h0.012c6.742,6.997,12.295,15.135,16.35,24.098    c5.707-1.656,9.882-6.913,9.882-13.154c0-4.525-2.203-8.525-5.583-11.021l9.981-0.037l22.696,94.038    c0.362,1.497,0.879,2.913,1.504,4.258h-40.455c-2.795,5.395-6.128,10.466-9.965,15.114h100.87c4.173,0,7.557-3.383,7.557-7.557    S501.955,482.277,497.781,482.277z" fill="#a0c4de"/>
	</g>
</g>
<g>
	<g>
		<circle cx="120.787" cy="45.311" r="45.311" fill="#a0c4de"/>
	</g>
</g>
<g>
	<g>
		<path d="M391.799,410.709c-0.004,0.006-0.009,0.012-0.013,0.018c-0.001-0.001-0.001-0.002-0.002-0.004    c-11.594-21.619-34.39-36.329-60.641-36.329c-38.394,0-68.803,31.254-68.803,68.803c0,37.999,30.804,68.803,68.803,68.803    c37.999,0,68.803-30.804,68.803-68.803C399.946,431.446,396.993,420.386,391.799,410.709z M331.143,462.298    c-10.549,0-19.101-8.551-19.101-19.101c0-10.542,8.552-19.101,19.101-19.101c10.552,0,19.101,8.561,19.101,19.101    C350.244,453.746,341.692,462.298,331.143,462.298z" fill="#a0c4de"/>
	</g>
</g>
<g>
	<g>
		<circle cx="356.821" cy="157.473" r="41.663" fill="#a0c4de"/>
	</g>
</g>
<g>
	<g>
		<path d="M275.654,244.006c-1.263-6.426-6.899-11.062-13.448-11.062c-7.757,0-13.504,0-21.595,0    c-2.294-5.174-6.729-9.363-12.571-11.133l-74.294-22.496l-28.473-59.582l34.555,43l11.569,3.503v-48.424    c0-16.905-13.704-30.609-30.609-30.609H86.201c-16.905,0-30.609,13.704-30.609,30.609v155.672l-3.241,77.457L8.568,477.209    c-5.299,12.863,0.832,27.585,13.695,32.885c12.868,5.302,27.588-0.837,32.885-13.694l45.475-110.373    c1.119-2.716,1.755-5.607,1.877-8.542l3.458-82.626h12.82l28.028,76.415l16.19,118.929c1.871,13.746,14.527,23.438,28.357,21.561    c13.785-1.876,23.438-14.573,21.561-28.357l-16.558-121.637c-0.245-1.802-0.684-3.57-1.31-5.277l-23.649-64.477v-26.823    c-14.285-4.326-35.284-10.684-49.596-15.018c-8.612-2.608-14.685-9.656-16.495-17.858L88.908,157.11l32.307,67.604    c2.442,5.11,6.922,8.957,12.343,10.599l82.803,25.072c3.721,1.126,7.734,1.204,11.746-0.031h22.826    c0.435,2.217,21.681,110.3,23.662,120.38c6.774-6.112,15.302-11.536,24.904-15.418L275.654,244.006z" fill="#a0c4de"/>
	</g>
</g>
<g>
</g>
<g>
</g>
<g>
</g>
<g>
</g>
<g>
</g>
<g>
</g>
<g>
</g>
<g>
</g>
<g>
</g>
<g>
</g>
<g>
</g>
<g>
</g>
<g>
</g>
<g>
</g>
<g>
</g>
</svg>
