<?xml version="1.0" encoding="UTF-8"?><svg xmlns="http://www.w3.org/2000/svg" height="500" width="750" version="1.1"><rect style="fill:red" y="0" x="0" height="500" width="750"/><rect style="fill:#fff" y="0" x="187.5" height="500" width="375"/><path style="fill:red" d="m 374.99421,97.65625 -25.58484,47.71897 c -2.90315,5.18625 -8.1047,4.70522 -13.30627,1.80853 l -18.52274,-9.59143 13.80529,73.29533 c 2.90314,13.39064 -6.41144,13.39064 -11.00824,7.60076 l -32.32579,-36.18824 -5.24803,18.37725 c -0.60519,2.41333 -3.26611,4.94808 -7.25812,4.34445 l -40.87632,-8.59433 10.73643,39.03356 c 2.29838,8.68541 4.09118,12.28146 -2.32031,14.57219 l -14.56965,6.84769 70.36595,57.15628 c 2.78513,2.16114 4.19229,6.05025 3.20077,9.57158 l -6.15852,20.2103 c 24.22804,-2.79278 45.93673,-6.99445 70.17704,-9.58214 2.13992,-0.22844 5.72241,3.30306 5.70771,5.78294 l -3.21017,74.04256 11.77979,0 -1.85428,-73.88377 c -0.0147,-2.47988 3.23529,-6.17017 5.37521,-5.94173 24.24031,2.58769 45.94904,6.78936 70.17707,9.58214 l -6.1585,-20.2103 c -0.99153,-3.52133 0.41562,-7.41044 3.20075,-9.57158 l 70.36593,-57.15628 -14.56962,-6.84769 c -6.41151,-2.29073 -4.61871,-5.88678 -2.32033,-14.57219 l 10.73645,-39.03356 -40.87635,8.59434 c -3.992,0.60362 -6.65292,-1.93113 -7.25812,-4.34446 l -5.24803,-18.37725 -32.32577,36.18824 c -4.59681,5.78988 -13.91141,5.78988 -11.00826,-7.60076 l 13.80526,-73.29533 -18.5227,9.59143 c -5.20169,2.89669 -10.40312,3.37772 -13.30627,-1.80853"/></svg>